<svg width="905" height="184" viewBox="0 0 905 184" fill="none" xmlns="http://www.w3.org/2000/svg">
<path d="M896.293 183.706C896.683 184.096 897.317 184.096 897.707 183.706L904.071 177.342C904.462 176.951 904.462 176.318 904.071 175.927C903.681 175.537 903.047 175.537 902.657 175.927L897 181.584L891.343 175.927C890.953 175.537 890.319 175.537 889.929 175.927C889.538 176.318 889.538 176.951 889.929 177.342L896.293 183.706ZM-0.000111288 -0.00155038C-0.000179795 32.1635 14.1798 56.5731 38.9037 74.926C63.58 93.2435 98.7517 105.528 140.811 113.599C224.936 129.74 337.044 129.092 449.03 125.686C561.078 122.279 673 116.11 756.94 121.161C798.917 123.687 833.783 129.015 858.126 138.841C882.458 148.663 896 162.844 896 182.998L898 182.998C898 161.653 883.542 146.944 858.874 136.987C834.217 127.034 799.082 121.694 757.06 119.165C673 114.107 560.922 120.283 448.969 123.687C336.956 127.094 225.063 127.728 141.188 111.634C99.2477 103.587 64.4194 91.3758 40.0958 73.32C15.8197 55.2996 1.99982 31.4588 1.99989 -0.00154551L-0.000111288 -0.00155038Z" fill="white" fill-opacity="0.3"/>
</svg>
