<svg width="40" height="40" viewBox="0 0 40 40" fill="none" xmlns="http://www.w3.org/2000/svg">
<path d="M21.163 5.51393C27.4678 5.46479 32.5774 10.5276 32.6263 16.7999C32.6618 21.3498 30.0434 25.2541 26.2064 27.104L26.2658 34.725L14.8912 34.8137L14.8532 29.9388L13.2282 29.9515C11.4245 29.9656 9.96704 28.5306 9.95299 26.7269L9.915 21.8521L7.47757 21.8711C6.79509 21.8764 6.39877 21.067 6.78483 20.5602L9.8727 16.4247C9.99312 13.5041 11.2328 10.7417 13.3348 8.71038C15.4368 6.67903 18.2399 5.53445 21.163 5.51393ZM21.1377 2.26403C13.6792 2.32215 7.54766 7.9276 6.71067 15.2143L4.20234 18.6465L4.15359 18.6469L4.12148 18.6959C3.23738 19.9378 3.13629 21.5636 3.84553 22.9069C4.43925 24.0236 5.4853 24.7954 6.68966 25.0298L6.70309 26.7523C6.72651 29.7584 8.82633 32.2934 11.6269 33.0028L11.6666 38.0889L29.541 37.9496L29.4714 29.0124C33.5126 26.2671 35.915 21.747 35.8762 16.7746C35.8133 8.69861 29.1974 2.20121 21.1377 2.26403ZM28.2788 15.6963L25.1004 16.5498L27.4588 18.904C28.0318 19.4521 28.0392 20.3945 27.4749 20.9677C26.9106 21.5409 25.9681 21.5482 25.4112 20.9838L23.0368 18.6622L22.2166 21.8537C22.0278 22.6515 21.235 23.0964 20.486 22.9072C20.2965 22.8613 20.1179 22.7783 19.9605 22.6631C19.8031 22.5478 19.6701 22.4026 19.5691 22.2357C19.4681 22.0688 19.4012 21.8836 19.372 21.6907C19.3429 21.4979 19.3523 21.3011 19.3995 21.1119L20.2359 17.9203L17.0577 18.8063C16.8692 18.8565 16.6727 18.8689 16.4794 18.8428C16.2861 18.8167 16.0999 18.7526 15.9314 18.6542C15.763 18.5559 15.6157 18.4251 15.498 18.2696C15.3803 18.114 15.2946 17.9367 15.2457 17.7479C15.045 17.0182 15.4936 16.2022 16.2721 16.0011L19.4504 15.1313L17.0921 12.7934C16.8455 12.5161 16.7135 12.1554 16.7229 11.7844C16.7323 11.4134 16.8824 11.0598 17.1427 10.7954C17.4031 10.5309 17.7543 10.3753 18.1251 10.3601C18.4959 10.345 18.8586 10.4713 19.1397 10.7136L21.5304 13.035L22.3343 9.84368C22.5231 9.04594 23.332 8.58462 24.0974 8.78991C24.8953 8.99495 25.3564 9.78763 25.1513 10.5693L24.315 13.7771L27.5095 12.8909C28.2878 12.6736 29.0876 13.1224 29.305 13.917C29.5222 14.6791 29.0735 15.4951 28.2788 15.6963Z" fill="#09B3CC"/>
</svg>
