<svg width="39" height="39" viewBox="0 0 39 39" fill="none" xmlns="http://www.w3.org/2000/svg">
<path d="M31.2 26H27.3V30.3333H31.2M31.2 17.3333H27.3V21.6667H31.2M35.1 34.6667H19.5V30.3333H23.4V26H19.5V21.6667H23.4V17.3333H19.5V13H35.1M15.6 8.66667H11.7V4.33333H15.6M15.6 17.3333H11.7V13H15.6M15.6 26H11.7V21.6667H15.6M15.6 34.6667H11.7V30.3333H15.6M7.8 8.66667H3.9V4.33333H7.8M7.8 17.3333H3.9V13H7.8M7.8 26H3.9V21.6667H7.8M7.8 34.6667H3.9V30.3333H7.8M19.5 8.66667V0H0V39H39V8.66667H19.5Z" fill="#09B3CC"/>
</svg>
