<svg width="89" height="88" viewBox="0 0 89 88" fill="none" xmlns="http://www.w3.org/2000/svg">
<circle cx="44.5" cy="44" r="44" fill="#132148"/>
<path d="M63.9979 42.5887C64.0186 42.0884 63.8875 41.5938 63.6223 41.1714C63.357 40.749 62.9703 40.4191 62.5143 40.2263L59.2079 39.2385C59.0525 38.7803 58.8688 38.3293 58.6569 37.8855L60.1829 35.0292C60.4226 34.5645 60.5088 34.034 60.4286 33.516C60.3485 32.9979 60.1063 32.5196 59.7378 32.1515L56.8977 29.3167C56.5319 28.9467 56.0587 28.7053 55.5475 28.628C55.0363 28.5507 54.5141 28.6415 54.0577 28.8871L51.2176 30.4119C50.7544 30.1877 50.2805 29.987 49.7976 29.8106L48.8014 26.6322C48.6343 26.1531 48.3241 25.7385 47.9139 25.4461C47.5038 25.1536 47.014 24.9977 46.5124 25H42.4431C41.9311 25.0037 41.4335 25.1721 41.0221 25.4809C40.6107 25.7897 40.3068 26.2229 40.1541 26.7181L39.2215 29.7891C38.7315 29.965 38.2505 30.1657 37.7803 30.3904L34.9826 28.8871C34.5307 28.6439 34.0142 28.5524 33.5076 28.6257C33.001 28.699 32.5304 28.9334 32.1638 29.2952L29.2601 32.1085C28.8868 32.4782 28.6417 32.9604 28.5615 33.4831C28.4812 34.0057 28.5702 34.5406 28.815 35.0077L30.2987 37.7566C30.0726 38.2148 29.8748 38.6801 29.7052 39.1525L26.7168 40.1404C26.2189 40.2894 25.7823 40.5982 25.4727 41.0204C25.163 41.4426 24.9972 41.9553 25 42.4813V46.4973C25.0241 47.0066 25.2045 47.4955 25.5161 47.8959C25.8277 48.2963 26.2548 48.5882 26.738 48.7307L29.8536 49.6757C30.0231 50.1338 30.2209 50.592 30.447 51.0501L28.921 53.9493C28.6735 54.4143 28.5811 54.9478 28.6575 55.4703C28.7339 55.9928 28.975 56.4763 29.3449 56.8486L32.185 59.6834C32.5508 60.0533 33.024 60.2947 33.5352 60.372C34.0464 60.4493 34.5685 60.3585 35.025 60.1129L37.9287 58.5666C38.3667 58.7671 38.8118 58.9532 39.2639 59.125L40.1965 62.2819C40.3502 62.7806 40.6574 63.2163 41.0731 63.5255C41.4887 63.8346 41.9911 64.0009 42.5067 64H46.5336C47.0419 63.9918 47.5348 63.8213 47.9419 63.5129C48.3491 63.2044 48.6499 62.7737 48.8014 62.2819L49.734 59.125C50.1791 58.9747 50.6242 58.7814 51.048 58.5881L53.9729 60.1558C54.427 60.3964 54.9448 60.4844 55.4515 60.4072C55.9582 60.33 56.4275 60.0915 56.7917 59.7263L59.6318 56.8915C60.0051 56.5218 60.2502 56.0396 60.3305 55.517C60.4107 54.9943 60.3217 54.4594 60.0769 53.9923L58.5297 51.1145C58.7275 50.685 58.9041 50.2555 59.0596 49.826L62.2387 48.8811C62.7376 48.742 63.1785 48.4429 63.4956 48.0287C63.8127 47.6145 63.9889 47.1073 63.9979 46.5832V42.5887ZM60.6068 45.81L56.3679 47.0556L56.1135 47.9576C55.8786 48.77 55.5588 49.5547 55.1598 50.2985L54.7147 51.1145L56.8341 54.9587L55.0114 56.7627L51.154 54.6151L50.3698 55.0446C49.6149 55.4572 48.8193 55.7883 47.996 56.0325L47.1059 56.2902L45.8554 60.5854H43.2485L41.998 56.3976L41.1078 56.1399C40.2786 55.9028 39.4759 55.5789 38.7129 55.1735L37.9287 54.7439L34.0925 56.8915L32.2697 55.0661L34.3892 51.1575L33.9229 50.3414C33.4897 49.5736 33.1414 48.7598 32.8844 47.9147L32.6089 47.0341L28.4759 45.7886V43.19L32.5877 41.9444L32.842 41.0639C33.0964 40.2109 33.4448 39.3897 33.8805 38.6157L34.3468 37.7781L32.2274 34.0628L34.0713 32.2588L37.8227 34.2776L38.6281 33.8266C39.4142 33.385 40.2458 33.0321 41.1078 32.7742L41.9768 32.5165L43.2273 28.4147H45.8342L47.0635 32.4951L47.9325 32.7528C48.7864 33.0051 49.6108 33.3507 50.391 33.7836L51.1964 34.2346L55.0114 32.1944L56.8341 34.0198L54.7147 37.8211L55.1598 38.6371C55.5794 39.4062 55.9135 40.2201 56.1559 41.0639L56.4102 41.9659L60.5008 43.19L60.6068 45.81Z" fill="white"/>
<path d="M44.4217 36.9996C42.9393 37.0151 41.4947 37.4696 40.2704 38.3057C39.0462 39.1417 38.0972 40.3219 37.5432 41.6971C36.9893 43.0722 36.8554 44.5807 37.1583 46.032C37.4612 47.4832 38.1875 48.8121 39.2453 49.8509C40.303 50.8896 41.6449 51.5915 43.1014 51.868C44.5579 52.1445 46.0637 51.9831 47.4285 51.4042C48.7933 50.8253 49.956 49.855 50.7696 48.6157C51.5832 47.3763 52.0113 45.9237 51.9998 44.4412C51.969 42.4535 51.1564 40.5579 49.738 39.1651C48.3196 37.7722 46.4096 36.9942 44.4217 36.9996ZM44.4217 48.8749C43.5624 48.8595 42.7267 48.5913 42.0189 48.1039C41.3111 47.6164 40.7625 46.9313 40.4416 46.134C40.1207 45.3367 40.0418 44.4625 40.2146 43.6206C40.3875 42.7788 40.8044 42.0064 41.4135 41.4C42.0225 40.7937 42.7966 40.3801 43.6392 40.2109C44.4819 40.0418 45.3556 40.1246 46.1515 40.449C46.9474 40.7734 47.6301 41.325 48.1144 42.0349C48.5987 42.7449 48.8632 43.5818 48.8748 44.4412C48.8774 45.0258 48.7639 45.6051 48.5408 46.1455C48.3177 46.6859 47.9895 47.1766 47.5752 47.589C47.1609 48.0015 46.6688 48.3276 46.1274 48.5483C45.5861 48.7691 45.0063 48.8801 44.4217 48.8749Z" fill="white"/>
</svg>
