<svg width="89" height="88" viewBox="0 0 89 88" fill="none" xmlns="http://www.w3.org/2000/svg">
<circle cx="44.5" cy="44" r="44" fill="#132148"/>
<path d="M54.58 48.7611C55.105 47.4861 55.39 46.1211 55.39 44.6211C55.39 43.5411 55.225 42.5061 54.94 41.5461C53.965 41.7711 52.945 41.8911 51.88 41.8911C49.699 41.8935 47.5493 41.3714 45.6123 40.369C43.6753 39.3665 42.0076 37.9131 40.75 36.1311C39.4046 39.3864 36.8667 42.0048 33.655 43.4511C33.595 43.8261 33.595 44.2311 33.595 44.6211C33.595 46.0532 33.8771 47.4712 34.4251 48.7943C34.9731 50.1174 35.7764 51.3195 36.789 52.3321C38.8341 54.3772 41.6078 55.5261 44.5 55.5261C46.075 55.5261 47.59 55.1811 48.955 54.5661C49.81 56.2011 50.2 57.0111 50.17 57.0111C47.71 57.8361 45.805 58.2411 44.5 58.2411C40.87 58.2411 37.405 56.8161 34.855 54.2511C33.304 52.7049 32.1511 50.8056 31.495 48.7161H29.5V41.8911H31.135C31.6304 39.4799 32.7692 37.2478 34.4308 35.4315C36.0923 33.6153 38.2146 32.2827 40.5723 31.5753C42.93 30.8678 45.4353 30.8118 47.8223 31.4132C50.2093 32.0146 52.389 33.251 54.13 34.9911C56.0203 36.874 57.3097 39.2753 57.835 41.8911H59.5V48.7161H59.41L54.07 53.6211L46.12 52.7211V50.2161H53.365L54.58 48.7611ZM40.405 44.2761C40.855 44.2761 41.29 44.4561 41.605 44.7861C41.9216 45.1053 42.0992 45.5366 42.0992 45.9861C42.0992 46.4357 41.9216 46.867 41.605 47.1861C41.29 47.5011 40.855 47.6811 40.405 47.6811C39.46 47.6811 38.695 46.9311 38.695 45.9861C38.695 45.0411 39.46 44.2761 40.405 44.2761ZM48.58 44.2761C49.525 44.2761 50.275 45.0411 50.275 45.9861C50.275 46.9311 49.525 47.6811 48.58 47.6811C47.635 47.6811 46.87 46.9311 46.87 45.9861C46.87 45.5326 47.0502 45.0977 47.3708 44.777C47.6915 44.4563 48.1265 44.2761 48.58 44.2761Z" fill="white"/>
</svg>
