<svg width="204" height="35" viewBox="0 0 204 35" fill="none" xmlns="http://www.w3.org/2000/svg">
<path d="M25.792 7.38C27.808 7.38 29.38 7.98 30.508 9.18C31.636 10.38 32.2 12.168 32.2 14.544V27H24.784V16.164C24.784 14.172 24.028 13.176 22.516 13.176C21.724 13.176 21.088 13.464 20.608 14.04C20.128 14.616 19.888 15.516 19.888 16.74V27H12.472V16.164C12.472 15.108 12.28 14.352 11.896 13.896C11.512 13.416 10.96 13.176 10.24 13.176C9.448 13.176 8.8 13.476 8.296 14.076C7.816 14.652 7.576 15.54 7.576 16.74V27H0.16V7.848H7.288V10.476H7.432C8.08 9.588 8.872 8.856 9.808 8.28C10.744 7.68 11.968 7.38 13.48 7.38C16.24 7.38 18.124 8.472 19.132 10.656C20.02 9.672 20.944 8.88 21.904 8.28C22.888 7.68 24.184 7.38 25.792 7.38ZM45.736 7.38C49.12 7.38 51.736 8.268 53.584 10.044C55.456 11.796 56.392 14.268 56.392 17.46C56.392 20.628 55.456 23.088 53.584 24.84C51.736 26.592 49.12 27.468 45.736 27.468C42.328 27.468 39.7 26.592 37.852 24.84C36.004 23.088 35.08 20.628 35.08 17.46C35.08 14.268 36.004 11.796 37.852 10.044C39.7 8.268 42.328 7.38 45.736 7.38ZM45.736 22.284C46.744 22.284 47.512 21.924 48.04 21.204C48.568 20.484 48.832 19.236 48.832 17.46C48.832 15.684 48.568 14.424 48.04 13.68C47.512 12.936 46.744 12.564 45.736 12.564C44.728 12.564 43.96 12.936 43.432 13.68C42.904 14.424 42.64 15.684 42.64 17.46C42.64 19.236 42.904 20.484 43.432 21.204C43.96 21.924 44.728 22.284 45.736 22.284ZM66.2324 7.38C68.8484 7.38 70.7684 8.316 71.9924 10.188H72.1364V0.935999H79.5524V27H72.4244V24.372H72.2804C71.1284 26.436 69.1964 27.468 66.4844 27.468C64.9724 27.468 63.6164 27.072 62.4164 26.28C61.2164 25.488 60.2684 24.336 59.5724 22.824C58.9004 21.312 58.5644 19.524 58.5644 17.46C58.5644 15.396 58.9004 13.608 59.5724 12.096C60.2444 10.56 61.1564 9.396 62.3084 8.604C63.4844 7.788 64.7924 7.38 66.2324 7.38ZM69.2924 22.104C70.3004 22.104 71.0804 21.744 71.6324 21.024C72.1844 20.304 72.4604 19.116 72.4604 17.46C72.4604 15.78 72.1844 14.58 71.6324 13.86C71.0804 13.14 70.3004 12.78 69.2924 12.78C68.2844 12.78 67.5044 13.14 66.9524 13.86C66.4004 14.58 66.1244 15.78 66.1244 17.46C66.1244 19.116 66.4004 20.304 66.9524 21.024C67.5044 21.744 68.2844 22.104 69.2924 22.104ZM102.559 22.104C102.703 22.104 102.883 22.068 103.099 21.996V27C102.283 27.24 101.299 27.36 100.147 27.36C98.7075 27.36 97.5675 27.192 96.7275 26.856C95.9115 26.52 95.2875 25.98 94.8555 25.236H94.7115C94.1355 25.908 93.3795 26.448 92.4435 26.856C91.5075 27.264 90.4395 27.468 89.2395 27.468C87.2715 27.468 85.6155 26.976 84.2715 25.992C82.9515 24.984 82.2915 23.616 82.2915 21.888C82.2915 19.944 82.8795 18.504 84.0555 17.568C85.2555 16.608 87.0915 15.924 89.5635 15.516C90.8835 15.3 91.8795 15.108 92.5515 14.94C93.2235 14.748 93.6915 14.544 93.9555 14.328C94.2435 14.112 94.3875 13.824 94.3875 13.464C94.3875 12.984 94.2075 12.624 93.8475 12.384C93.4875 12.12 93.0315 11.988 92.4795 11.988C91.2315 11.988 90.3915 12.72 89.9595 14.184L83.0115 13.644C83.4195 11.652 84.4635 10.116 86.1435 9.036C87.8235 7.932 89.9595 7.38 92.5515 7.38C95.5515 7.38 97.8435 7.968 99.4275 9.144C101.011 10.296 101.803 11.988 101.803 14.22V20.988C101.803 21.444 101.851 21.744 101.947 21.888C102.067 22.032 102.271 22.104 102.559 22.104ZM94.3875 18.288C93.8355 18.528 93.0555 18.756 92.0475 18.972C90.5835 19.308 89.8515 20.052 89.8515 21.204C89.8515 21.756 90.0075 22.2 90.3195 22.536C90.6555 22.872 91.0875 23.04 91.6155 23.04C92.2875 23.04 92.9115 22.764 93.4875 22.212C94.0875 21.636 94.3875 20.808 94.3875 19.728V18.288ZM113.185 0.935999V27H105.769V0.935999H113.185ZM124.748 7.848V27H117.332V7.848H124.748ZM124.748 0.935999V5.796H117.332V0.935999H124.748ZM139.81 21.852C140.242 21.852 140.782 21.816 141.43 21.744V27C140.35 27.312 138.874 27.468 137.002 27.468C135.322 27.468 134.014 27.312 133.078 27C132.142 26.688 131.446 26.136 130.99 25.344C130.558 24.552 130.342 23.412 130.342 21.924V12.312H127.498V7.848H130.342V2.628H137.758V7.848H141.43V12.312H137.758V19.944C137.758 20.712 137.902 21.228 138.19 21.492C138.502 21.732 139.042 21.852 139.81 21.852ZM158.906 27C158.21 29.04 157.406 30.564 156.494 31.572C155.606 32.604 154.634 33.276 153.578 33.588C152.546 33.924 151.262 34.092 149.726 34.092C147.782 34.092 146.318 34.008 145.334 33.84V28.08C146.198 28.224 147.182 28.296 148.286 28.296C149.03 28.296 149.582 28.236 149.942 28.116C150.302 27.996 150.53 27.768 150.626 27.432L150.77 27L143.138 7.848H151.238L154.622 18.504H154.766L157.502 7.848H165.458L158.906 27ZM168.388 1.296H176.308V27H168.388V1.296ZM195.3 7.776V27H187.38V7.776H179.604V1.296H203.076V7.776H195.3Z" fill="white"/>
</svg>
