<svg width="89" height="88" viewBox="0 0 89 88" fill="none" xmlns="http://www.w3.org/2000/svg">
<circle cx="44.5" cy="44" r="44" fill="#132148"/>
<g clip-path="url(#clip0_283_256)">
<path d="M37.35 53.44C37.7679 53.3503 38.1524 53.1454 38.4599 52.8485C38.7674 52.5516 38.9857 52.1745 39.09 51.76C39.63 51.62 40.15 51.44 40.68 51.25V50.05C40.6842 49.8785 40.7042 49.7078 40.74 49.54C40.1452 49.78 39.5376 49.987 38.92 50.16C38.7042 49.7329 38.3595 49.3844 37.9346 49.1641C37.5098 48.9438 37.0264 48.8627 36.5529 48.9324C36.0795 49.0021 35.6399 49.219 35.2966 49.5524C34.9533 49.8858 34.7236 50.3188 34.64 50.79H34.19C32.4405 48.759 31.426 46.1981 31.31 43.52C32.6539 41.6365 34.3522 40.0332 36.31 38.8C36.6013 39.098 36.9702 39.3084 37.3749 39.4073C37.7797 39.5063 38.2041 39.4899 38.6 39.36C39.7733 41.2848 41.2881 42.9793 43.07 44.36C43.1353 44.276 43.2054 44.1959 43.28 44.12L44.23 43.21C42.485 41.9084 41.008 40.2819 39.88 38.42C40.1067 38.0606 40.2279 37.6449 40.23 37.22V37C43.8862 35.7713 47.8438 35.7713 51.5 37C51.2304 38.1493 50.8451 39.2683 50.35 40.34H52.1C52.4714 39.4576 52.7756 38.5483 53.01 37.62C53.44 37.81 53.85 38.03 54.27 38.26C54.843 39.5533 55.1816 40.9382 55.27 42.35C55.6471 42.139 56.0683 42.0191 56.5 42C56.73 42.0046 56.9584 42.0382 57.18 42.1C57.0035 39.4026 56.0498 36.814 54.4342 34.6467C52.8186 32.4795 50.6101 30.8263 48.0754 29.8868C45.5407 28.9474 42.7882 28.7618 40.1504 29.3526C37.5125 29.9433 35.1021 31.2851 33.2102 33.2159C31.3183 35.1466 30.0258 37.5838 29.4889 40.2332C28.9519 42.8825 29.1934 45.6306 30.1842 48.1456C31.175 50.6607 32.8728 52.8351 35.0724 54.4064C37.2721 55.9776 39.8795 56.8784 42.58 57C42.326 56.3575 42.326 55.6425 42.58 55C40.7395 54.8911 38.9494 54.3571 37.35 53.44ZM43.26 31C44.8671 31.0024 46.4573 31.3276 47.9364 31.9564C49.4154 32.5851 50.7531 33.5045 51.87 34.66C51.87 34.91 51.87 35.17 51.79 35.42C47.7734 34.0962 43.4323 34.1349 39.44 35.53C39.1006 35.2396 38.6833 35.0553 38.24 35C37.9723 34.1735 37.7684 33.3277 37.63 32.47C39.3564 31.5224 41.2907 31.0174 43.26 31ZM36.16 33.36C36.2893 34.0082 36.4529 34.6491 36.65 35.28C36.3229 35.4848 36.0531 35.7694 35.8659 36.1069C35.6788 36.4445 35.5804 36.824 35.58 37.21C35.58 37.21 35.58 37.31 35.58 37.36C34.069 38.3107 32.6961 39.4649 31.5 40.79C32.0602 37.8141 33.7248 35.16 36.16 33.36Z" fill="white"/>
<path d="M51.5 47.19C50.741 47.1979 50.0014 47.4306 49.3746 47.8587C48.7477 48.2867 48.2618 48.891 47.9782 49.595C47.6946 50.2991 47.626 51.0714 47.7811 51.8145C47.9362 52.5575 48.3081 53.2379 48.8497 53.7697C49.3912 54.3015 50.0783 54.6609 50.824 54.8024C51.5697 54.944 52.3407 54.8613 53.0395 54.565C53.7383 54.2686 54.3335 53.7718 54.7501 53.1373C55.1667 52.5028 55.3859 51.759 55.38 51C55.3642 49.9823 54.9482 49.0118 54.222 48.2987C53.4957 47.5856 52.5178 47.1872 51.5 47.19ZM51.5 53.27C51.0601 53.2621 50.6322 53.1248 50.2698 52.8752C49.9074 52.6257 49.6265 52.2749 49.4622 51.8667C49.2979 51.4585 49.2575 51.0109 49.346 50.5799C49.4345 50.1489 49.6479 49.7534 49.9598 49.443C50.2716 49.1325 50.668 48.9208 51.0994 48.8342C51.5308 48.7476 51.9782 48.79 52.3857 48.956C52.7931 49.1221 53.1427 49.4045 53.3906 49.768C53.6386 50.1315 53.774 50.56 53.78 51C53.7813 51.2993 53.7232 51.5959 53.609 51.8726C53.4947 52.1493 53.3267 52.4005 53.1146 52.6117C52.9025 52.8228 52.6505 52.9898 52.3733 53.1028C52.0962 53.2158 51.7993 53.2727 51.5 53.27Z" fill="white"/>
<path d="M60.67 50.14C60.6798 49.9071 60.618 49.6767 60.4928 49.48C60.3676 49.2834 60.1852 49.1298 59.97 49.04L58.41 48.58C58.3367 48.3667 58.25 48.1567 58.15 47.95L58.87 46.62C58.9831 46.4036 59.0238 46.1566 58.986 45.9154C58.9482 45.6741 58.8339 45.4514 58.66 45.28L57.32 43.96C57.1474 43.7877 56.9241 43.6753 56.6829 43.6393C56.4418 43.6033 56.1954 43.6456 55.98 43.76L54.64 44.47C54.4215 44.3656 54.1979 44.2721 53.97 44.19L53.5 42.71C53.4211 42.4869 53.2748 42.2939 53.0813 42.1577C52.8877 42.0215 52.6566 41.9489 52.42 41.95H50.5C50.2584 41.9517 50.0237 42.0301 49.8296 42.1739C49.6355 42.3177 49.492 42.5194 49.42 42.75L48.98 44.18C48.7488 44.2619 48.5218 44.3553 48.3 44.46L46.98 43.76C46.7668 43.6467 46.5231 43.6041 46.284 43.6383C46.045 43.6724 45.823 43.7816 45.65 43.95L44.28 45.26C44.1039 45.4321 43.9882 45.6567 43.9504 45.9001C43.9125 46.1434 43.9545 46.3925 44.07 46.61L44.77 47.89C44.6633 48.1033 44.57 48.32 44.49 48.54L43.08 49C42.8451 49.0694 42.6391 49.2132 42.493 49.4097C42.3469 49.6063 42.2687 49.8451 42.27 50.09V51.96C42.2814 52.1971 42.3665 52.4248 42.5135 52.6113C42.6605 52.7977 42.862 52.9336 43.09 53L44.56 53.44C44.64 53.6533 44.7333 53.8667 44.84 54.08L44.12 55.43C44.0032 55.6465 43.9596 55.8949 43.9957 56.1382C44.0317 56.3815 44.1455 56.6067 44.32 56.78L45.66 58.1C45.8326 58.2723 46.0559 58.3847 46.2971 58.4207C46.5383 58.4566 46.7846 58.4144 47 58.3L48.37 57.58C48.5767 57.6733 48.7867 57.76 49 57.84L49.44 59.31C49.5126 59.5422 49.6575 59.7451 49.8536 59.889C50.0497 60.033 50.2867 60.1104 50.53 60.11H52.43C52.6698 60.1062 52.9024 60.0268 53.0945 59.8832C53.2866 59.7395 53.4285 59.539 53.5 59.31L53.94 57.84C54.15 57.77 54.36 57.68 54.56 57.59L55.94 58.32C56.1543 58.432 56.3986 58.473 56.6376 58.437C56.8767 58.4011 57.0982 58.29 57.27 58.12L58.61 56.8C58.7861 56.6278 58.9018 56.4033 58.9396 56.1599C58.9775 55.9166 58.9355 55.6675 58.82 55.45L58.09 54.11C58.1833 53.91 58.2667 53.71 58.34 53.51L59.84 53.07C60.0754 53.0052 60.2834 52.866 60.433 52.6731C60.5827 52.4802 60.6658 52.2441 60.67 52V50.14ZM59.07 51.64L57.07 52.22L56.95 52.64C56.8391 53.0183 56.6883 53.3837 56.5 53.73L56.29 54.11L57.29 55.9L56.43 56.74L54.61 55.74L54.24 55.94C53.8838 56.1321 53.5084 56.2863 53.12 56.4L52.7 56.52L52.11 58.52H50.88L50.29 56.57L49.87 56.45C49.4788 56.3396 49.1 56.1888 48.74 56L48.37 55.8L46.56 56.8L45.7 55.95L46.7 54.13L46.48 53.75C46.2756 53.3925 46.1113 53.0135 45.99 52.62L45.86 52.21L43.91 51.63V50.42L45.85 49.84L45.97 49.43C46.0901 49.0328 46.2544 48.6504 46.46 48.29L46.68 47.9L45.68 46.17L46.55 45.33L48.32 46.27L48.7 46.06C49.0709 45.8544 49.4633 45.6901 49.87 45.57L50.28 45.45L50.87 43.54H52.1L52.68 45.44L53.09 45.56C53.4929 45.6775 53.8819 45.8384 54.25 46.04L54.63 46.25L56.43 45.3L57.29 46.15L56.29 47.92L56.5 48.3C56.698 48.6581 56.8556 49.0371 56.97 49.43L57.09 49.85L59.02 50.42L59.07 51.64Z" fill="white"/>
</g>
<defs>
<clipPath id="clip0_283_256">
<rect width="36" height="36" fill="white" transform="translate(26.5 26)"/>
</clipPath>
</defs>
</svg>
