<svg width="88" height="88" viewBox="0 0 88 88" fill="none" xmlns="http://www.w3.org/2000/svg">
<circle cx="44" cy="44" r="44" fill="#132148"/>
<path d="M28.2857 63.3898H59.7143M44 53.7285V65M63.1143 56.6623C50.6214 52.6387 37.3786 52.6387 24.8857 56.6623C24.7823 56.6958 24.6733 56.7016 24.5675 56.6795C24.4617 56.6573 24.3619 56.6078 24.276 56.5347C24.1901 56.4616 24.1205 56.367 24.0726 56.2584C24.0247 56.1497 23.9998 56.03 24 55.9087V25.7849C24 25.2632 24.4429 24.8864 24.8857 25.0313C37.3786 29.0549 50.6214 29.0549 63.1143 25.0313C63.2177 24.9978 63.3267 24.992 63.4325 25.0141C63.5383 25.0363 63.6381 25.0858 63.724 25.1589C63.8099 25.232 63.8795 25.3266 63.9274 25.4352C63.9753 25.5439 64.0002 25.6636 64 25.7849V55.9087C64.0002 56.03 63.9753 56.1497 63.9274 56.2584C63.8795 56.367 63.8099 56.4616 63.724 56.5347C63.6381 56.6078 63.5383 56.6573 63.4325 56.6795C63.3267 56.7016 63.2177 56.6958 63.1143 56.6623Z" stroke="white" stroke-width="2"/>
</svg>
