<svg width="39" height="40" viewBox="0 0 39 40" fill="none" xmlns="http://www.w3.org/2000/svg">
<g clip-path="url(#clip0_283_195)">
<path d="M37.6066 22.7856L26.1295 38.1071L18.4688 32.3685" stroke="#09B3CC" stroke-width="2" stroke-linecap="round" stroke-linejoin="round"/>
<path d="M13.928 14.4285C17.3897 14.4285 20.1959 11.6223 20.1959 8.16068C20.1959 4.69904 17.3897 1.89282 13.928 1.89282C10.4664 1.89282 7.66016 4.69904 7.66016 8.16068C7.66016 11.6223 10.4664 14.4285 13.928 14.4285Z" stroke="#09B3CC" stroke-width="2" stroke-linecap="round" stroke-linejoin="round"/>
<path d="M8.35686 35.3214H1.39258V31.1429C1.39476 28.6651 2.13115 26.2436 3.50874 24.1842C4.88633 22.1247 6.84333 20.5197 9.13257 19.5718C11.4218 18.6239 13.9406 18.3757 16.3709 18.8584C18.8011 19.3412 21.0338 20.5334 22.7869 22.2843" stroke="#09B3CC" stroke-width="2" stroke-linecap="round" stroke-linejoin="round"/>
</g>
<defs>
<clipPath id="clip0_283_195">
<rect width="39" height="39" fill="white" transform="translate(0 0.5)"/>
</clipPath>
</defs>
</svg>
