<svg width="88" height="88" viewBox="0 0 88 88" fill="none" xmlns="http://www.w3.org/2000/svg">
<circle cx="44" cy="44" r="44" fill="#132148"/>
<path d="M28.3406 40.9465L46.8545 58.96C47.0178 59.1187 47.2262 59.2263 47.4529 59.2688C47.6795 59.3113 47.9141 59.2868 48.1263 59.1985L57.2838 55.3825C57.4574 55.3099 57.61 55.1971 57.7283 55.0539C57.8467 54.9107 57.9271 54.7414 57.9627 54.5609C57.9983 54.3805 57.9879 54.1943 57.9325 54.0186C57.877 53.8429 57.7782 53.6832 57.6446 53.5532L52.0853 48.142C51.9139 47.975 51.6927 47.8647 51.4533 47.8267C51.2138 47.7888 50.9681 47.8251 50.751 47.9305L48.2258 49.159L38.4115 39.61L39.6765 37.153C39.7851 36.942 39.8228 36.7031 39.7842 36.4701C39.7456 36.2371 39.6327 36.0219 39.4614 35.8547L33.8975 30.4457C33.7638 30.3158 33.5995 30.2198 33.4188 30.166C33.2382 30.1122 33.0467 30.1023 32.8612 30.1371C32.6757 30.172 32.5018 30.2505 32.3547 30.3659C32.2076 30.4813 32.0918 30.63 32.0175 30.799L28.0931 39.709C28.0024 39.9155 27.9772 40.1437 28.0209 40.3643C28.0646 40.5848 28.1751 40.7876 28.3383 40.9465H28.3406ZM30.5259 39.8935L33.472 33.211L37.2368 36.8762L36.3465 38.6065L35.6018 40.0555L36.7789 41.203L46.5908 50.7497L47.7702 51.8972L49.2595 51.1705L51.0401 50.3065L54.8048 53.9672L47.9367 56.8315L30.5259 39.8935ZM43.9731 37V34.75C46.4263 34.75 48.7791 35.6982 50.5138 37.386C52.2485 39.0739 53.2231 41.3631 53.2231 43.75H50.9106C50.9106 41.9598 50.1797 40.2429 48.8786 38.977C47.5776 37.7112 45.813 37 43.9731 37ZM43.9731 30.25V28C48.2663 28 52.3836 29.6594 55.4194 32.6131C58.4551 35.5668 60.1606 39.5728 60.1606 43.75H57.8481C57.8481 40.1696 56.3863 36.7358 53.7842 34.2041C51.1821 31.6723 47.653 30.25 43.9731 30.25Z" fill="white"/>
</svg>
