<svg width="89" height="88" viewBox="0 0 89 88" fill="none" xmlns="http://www.w3.org/2000/svg">
<circle cx="44.5" cy="44" r="44" fill="#132148"/>
<g clip-path="url(#clip0_283_268)">
<path d="M65 35H62.5V31.5C62.5 30.673 61.827 30 61 30H59C58.8674 30 58.7402 30.0527 58.6464 30.1464C58.5527 30.2402 58.5 30.3674 58.5 30.5C58.5 30.6326 58.5527 30.7598 58.6464 30.8536C58.7402 30.9473 58.8674 31 59 31H61C61.1326 31 61.2598 31.0527 61.3536 31.1464C61.4473 31.2402 61.5 31.3674 61.5 31.5V35H57.5V25.5C57.5 25.3674 57.4473 25.2402 57.3536 25.1464C57.2598 25.0527 57.1326 25 57 25H34C33.8674 25 33.7402 25.0527 33.6464 25.1464C33.5527 25.2402 33.5 25.3674 33.5 25.5V35H29.5V31.5C29.5 31.3674 29.5527 31.2402 29.6464 31.1464C29.7402 31.0527 29.8674 31 30 31H32C32.1326 31 32.2598 30.9473 32.3536 30.8536C32.4473 30.7598 32.5 30.6326 32.5 30.5C32.5 30.3674 32.4473 30.2402 32.3536 30.1464C32.2598 30.0527 32.1326 30 32 30H30C29.173 30 28.5 30.673 28.5 31.5V35H26C25.173 35 24.5 35.673 24.5 36.5V50.5C24.5 51.327 25.173 52 26 52H32C32.1326 52 32.2598 51.9473 32.3536 51.8536C32.4473 51.7598 32.5 51.6326 32.5 51.5C32.5 51.3674 32.4473 51.2402 32.3536 51.1464C32.2598 51.0527 32.1326 51 32 51H26C25.8674 51 25.7402 50.9473 25.6464 50.8536C25.5527 50.7598 25.5 50.6326 25.5 50.5V47H65.5V50.5C65.5 50.6326 65.4473 50.7598 65.3536 50.8536C65.2598 50.9473 65.1326 51 65 51H59C58.8674 51 58.7402 51.0527 58.6464 51.1464C58.5527 51.2402 58.5 51.3674 58.5 51.5C58.5 51.6326 58.5527 51.7598 58.6464 51.8536C58.7402 51.9473 58.8674 52 59 52H65C65.827 52 66.5 51.327 66.5 50.5V36.5C66.5 35.673 65.827 35 65 35ZM34.5 26H56.5V35H34.5V26ZM25.5 46V36.5C25.5 36.3674 25.5527 36.2402 25.6464 36.1464C25.7402 36.0527 25.8674 36 26 36H65C65.1326 36 65.2598 36.0527 65.3536 36.1464C65.4473 36.2402 65.5 36.3674 65.5 36.5V46H25.5Z" fill="white" stroke="white"/>
<mask id="path-3-inside-1_283_268" fill="white">
<path d="M57 48C56.8674 48 56.7402 48.0527 56.6464 48.1464C56.5527 48.2402 56.5 48.3674 56.5 48.5V56H34.5V48.5C34.5 48.3674 34.4473 48.2402 34.3536 48.1464C34.2598 48.0527 34.1326 48 34 48C33.8674 48 33.7402 48.0527 33.6464 48.1464C33.5527 48.2402 33.5 48.3674 33.5 48.5V56.5C33.5 56.6326 33.5527 56.7598 33.6464 56.8536C33.7402 56.9473 33.8674 57 34 57H57C57.1326 57 57.2598 56.9473 57.3536 56.8536C57.4473 56.7598 57.5 56.6326 57.5 56.5V48.5C57.5 48.3674 57.4473 48.2402 57.3536 48.1464C57.2598 48.0527 57.1326 48 57 48Z"/>
</mask>
<path d="M57 48C56.8674 48 56.7402 48.0527 56.6464 48.1464C56.5527 48.2402 56.5 48.3674 56.5 48.5V56H34.5V48.5C34.5 48.3674 34.4473 48.2402 34.3536 48.1464C34.2598 48.0527 34.1326 48 34 48C33.8674 48 33.7402 48.0527 33.6464 48.1464C33.5527 48.2402 33.5 48.3674 33.5 48.5V56.5C33.5 56.6326 33.5527 56.7598 33.6464 56.8536C33.7402 56.9473 33.8674 57 34 57H57C57.1326 57 57.2598 56.9473 57.3536 56.8536C57.4473 56.7598 57.5 56.6326 57.5 56.5V48.5C57.5 48.3674 57.4473 48.2402 57.3536 48.1464C57.2598 48.0527 57.1326 48 57 48Z" fill="white"/>
<path d="M56.5 56V58H58.5V56H56.5ZM34.5 56H32.5V58H34.5V56ZM57 46C56.337 46 55.7011 46.2634 55.2322 46.7322L58.0607 49.5607C57.7794 49.842 57.3978 50 57 50V46ZM55.2322 46.7322C54.7634 47.2011 54.5 47.837 54.5 48.5H58.5C58.5 48.8978 58.342 49.2794 58.0607 49.5607L55.2322 46.7322ZM54.5 48.5V56H58.5V48.5H54.5ZM56.5 54H34.5V58H56.5V54ZM36.5 56V48.5H32.5V56H36.5ZM36.5 48.5C36.5 47.837 36.2366 47.2011 35.7678 46.7322L32.9393 49.5607C32.658 49.2794 32.5 48.8978 32.5 48.5H36.5ZM35.7678 46.7322C35.2989 46.2634 34.663 46 34 46V50C33.6022 50 33.2206 49.842 32.9393 49.5607L35.7678 46.7322ZM34 46C33.337 46 32.7011 46.2634 32.2322 46.7322L35.0607 49.5607C34.7794 49.842 34.3978 50 34 50V46ZM32.2322 46.7322C31.7634 47.2011 31.5 47.837 31.5 48.5H35.5C35.5 48.8978 35.342 49.2794 35.0607 49.5607L32.2322 46.7322ZM31.5 48.5V56.5H35.5V48.5H31.5ZM31.5 56.5C31.5 57.163 31.7634 57.7989 32.2322 58.2678L35.0607 55.4393C35.342 55.7206 35.5 56.1022 35.5 56.5H31.5ZM32.2322 58.2678C32.7011 58.7366 33.337 59 34 59V55C34.3978 55 34.7794 55.158 35.0607 55.4393L32.2322 58.2678ZM34 59H57V55H34V59ZM57 59C57.663 59 58.2989 58.7366 58.7678 58.2678L55.9393 55.4393C56.2206 55.158 56.6022 55 57 55V59ZM58.7678 58.2678C59.2366 57.7989 59.5 57.163 59.5 56.5H55.5C55.5 56.1022 55.658 55.7206 55.9393 55.4393L58.7678 58.2678ZM59.5 56.5V48.5H55.5V56.5H59.5ZM59.5 48.5C59.5 47.837 59.2366 47.2011 58.7678 46.7322L55.9393 49.5607C55.658 49.2794 55.5 48.8978 55.5 48.5H59.5ZM58.7678 46.7322C58.2989 46.2634 57.663 46 57 46V50C56.6022 50 56.2206 49.842 55.9393 49.5607L58.7678 46.7322Z" fill="white" mask="url(#path-3-inside-1_283_268)"/>
<path d="M62.5 44C63.0523 44 63.5 43.5523 63.5 43C63.5 42.4477 63.0523 42 62.5 42C61.9477 42 61.5 42.4477 61.5 43C61.5 43.5523 61.9477 44 62.5 44Z" fill="white"/>
<path d="M58.5 44C59.0523 44 59.5 43.5523 59.5 43C59.5 42.4477 59.0523 42 58.5 42C57.9477 42 57.5 42.4477 57.5 43C57.5 43.5523 57.9477 44 58.5 44Z" fill="white"/>
</g>
<defs>
<clipPath id="clip0_283_268">
<rect width="42" height="32" fill="white" transform="translate(24.5 25)"/>
</clipPath>
</defs>
</svg>
