<svg width="88" height="88" viewBox="0 0 88 88" fill="none" xmlns="http://www.w3.org/2000/svg">
<circle cx="44" cy="44" r="44" fill="#132148"/>
<path d="M44.5 40.1042C53.0144 40.1042 59.9166 38.0335 59.9166 35.4792C59.9166 32.9248 53.0144 30.8542 44.5 30.8542C35.9856 30.8542 29.0833 32.9248 29.0833 35.4792C29.0833 38.0335 35.9856 40.1042 44.5 40.1042Z" stroke="white" stroke-width="4" stroke-linecap="round" stroke-linejoin="round"/>
<path d="M34.3019 38.9479C31.1029 39.7958 29.0833 41.0353 29.0833 42.4167C29.0833 44.9712 35.9854 47.0417 44.5 47.0417C53.0146 47.0417 59.9166 44.9712 59.9166 42.4167C59.9166 41.0353 57.8978 39.7958 54.6981 38.9479C51.9801 39.6671 48.4096 40.1042 44.5 40.1042C40.5903 40.1042 37.0198 39.6671 34.3019 38.9479Z" stroke="white" stroke-width="4" stroke-linecap="round" stroke-linejoin="round"/>
<path d="M34.3019 45.8854C31.1029 46.7333 29.0833 47.9728 29.0833 49.3542C29.0833 51.9087 35.9854 53.9792 44.5 53.9792C53.0146 53.9792 59.9166 51.9087 59.9166 49.3542C59.9166 47.9728 57.8978 46.7333 54.6981 45.8854C51.9801 46.6046 48.4096 47.0417 44.5 47.0417C40.5903 47.0417 37.0198 46.6046 34.3019 45.8854Z" stroke="white" stroke-width="4" stroke-linecap="round" stroke-linejoin="round"/>
<path d="M34.3019 52.8229C31.1029 53.6708 29.0833 54.9103 29.0833 56.2917C29.0833 58.8462 35.9854 60.9167 44.5 60.9167C53.0146 60.9167 59.9166 58.8462 59.9166 56.2917C59.9166 54.9103 57.8978 53.6708 54.6981 52.8229C51.9801 53.5429 48.4096 53.9792 44.5 53.9792C40.5903 53.9792 37.0198 53.5429 34.3019 52.8229Z" stroke="white" stroke-width="4" stroke-linecap="round" stroke-linejoin="round"/>
</svg>
