<svg width="88" height="88" viewBox="0 0 88 88" fill="none" xmlns="http://www.w3.org/2000/svg">
<circle cx="44" cy="44" r="44" fill="#132148"/>
<g clip-path="url(#clip0_283_241)">
<path d="M44.5 25C46.29 25 48.0166 25.2285 49.6797 25.6855C51.3428 26.1426 52.8979 26.7964 54.3452 27.647C55.7925 28.4976 57.1064 29.5132 58.2871 30.6938C59.4678 31.8745 60.4834 33.1948 61.334 34.6548C62.1846 36.1147 62.8384 37.6699 63.2954 39.3203C63.7524 40.9707 63.9873 42.6973 64 44.5C64 46.29 63.7715 48.0166 63.3145 49.6797C62.8574 51.3428 62.2036 52.8979 61.353 54.3452C60.5024 55.7925 59.4868 57.1064 58.3062 58.2871C57.1255 59.4678 55.8052 60.4834 54.3452 61.334C52.8853 62.1846 51.3301 62.8384 49.6797 63.2954C48.0293 63.7524 46.3027 63.9873 44.5 64C42.71 64 40.9834 63.7715 39.3203 63.3145C37.6572 62.8574 36.1021 62.2036 34.6548 61.353C33.2075 60.5024 31.8936 59.4868 30.7129 58.3062C29.5322 57.1255 28.5166 55.8052 27.666 54.3452C26.8154 52.8853 26.1616 51.3364 25.7046 49.6987C25.2476 48.061 25.0127 46.3281 25 44.5C25 42.71 25.2285 40.9834 25.6855 39.3203C26.1426 37.6572 26.7964 36.1021 27.647 34.6548C28.4976 33.2075 29.5132 31.8936 30.6938 30.7129C31.8745 29.5322 33.1948 28.5166 34.6548 27.666C36.1147 26.8154 37.6636 26.1616 39.3013 25.7046C40.939 25.2476 42.6719 25.0127 44.5 25ZM44.5 61.5625C46.0615 61.5625 47.5659 61.3594 49.0132 60.9531C50.4604 60.5469 51.8188 59.9756 53.0884 59.2393C54.3579 58.5029 55.5132 57.6079 56.5542 56.5542C57.5952 55.5005 58.4839 54.3516 59.2202 53.1074C59.9565 51.8633 60.5342 50.5049 60.9531 49.0322C61.3721 47.5596 61.5752 46.0488 61.5625 44.5C61.5625 42.9385 61.3594 41.4341 60.9531 39.9868C60.5469 38.5396 59.9756 37.1812 59.2393 35.9116C58.5029 34.6421 57.6079 33.4868 56.5542 32.4458C55.5005 31.4048 54.3516 30.5161 53.1074 29.7798C51.8633 29.0435 50.5049 28.4658 49.0322 28.0469C47.5596 27.6279 46.0488 27.4248 44.5 27.4375C42.9385 27.4375 41.4341 27.6406 39.9868 28.0469C38.5396 28.4531 37.1812 29.0244 35.9116 29.7607C34.6421 30.4971 33.4868 31.3921 32.4458 32.4458C31.4048 33.4995 30.5161 34.6484 29.7798 35.8926C29.0435 37.1367 28.4658 38.4951 28.0469 39.9678C27.6279 41.4404 27.4248 42.9512 27.4375 44.5C27.4375 46.0615 27.6406 47.5659 28.0469 49.0132C28.4531 50.4604 29.0244 51.8188 29.7607 53.0884C30.4971 54.3579 31.3921 55.5132 32.4458 56.5542C33.4995 57.5952 34.6484 58.4839 35.8926 59.2202C37.1367 59.9565 38.4951 60.5342 39.9678 60.9531C41.4404 61.3721 42.9512 61.5752 44.5 61.5625ZM55.8687 44.8047L56.7827 42.0625H58.2109L56.5923 46.9375H55.1641L54.25 44.1953L53.3359 46.9375H51.9077L50.2891 42.0625H51.7173L52.6313 44.8047L53.5454 42.0625H54.9546L55.8687 44.8047ZM47.0327 42.0625H48.4609L46.8423 46.9375H45.4141L44.5 44.1953L43.5859 46.9375H42.1577L40.5391 42.0625H41.9673L42.8813 44.8047L43.7954 42.0625H45.2046L46.1187 44.8047L47.0327 42.0625ZM37.2827 42.0625H38.7109L37.0923 46.9375H35.6641L34.75 44.1953L33.8359 46.9375H32.4077L30.7891 42.0625H32.2173L33.1313 44.8047L34.0454 42.0625H35.4546L36.3687 44.8047L37.2827 42.0625Z" fill="white"/>
</g>
<defs>
<clipPath id="clip0_283_241">
<rect width="39" height="39" fill="white" transform="translate(25 25)"/>
</clipPath>
</defs>
</svg>
